<?xml version="1.0" encoding="UTF-8" standalone="no"?>
<!-- Created with Inkscape (http://www.inkscape.org/) -->

<svg
   width="23.500065mm"
   height="2.9832845mm"
   viewBox="0 0 122.20034 15.51308"
   version="1.1"
   id="svg5"
   inkscape:version="1.1.1 (3bf5ae0d25, 2021-09-20)"
   sodipodi:docname="email.svg"
   xmlns:inkscape="http://www.inkscape.org/namespaces/inkscape"
   xmlns:sodipodi="http://sodipodi.sourceforge.net/DTD/sodipodi-0.dtd"
   xmlns="http://www.w3.org/2000/svg"
   xmlns:svg="http://www.w3.org/2000/svg"
   xmlns:rdf="http://www.w3.org/1999/02/22-rdf-syntax-ns#"
   xmlns:cc="http://creativecommons.org/ns#"
   xmlns:dc="http://purl.org/dc/elements/1.1/">
  <title
     id="title1479">email</title>
  <sodipodi:namedview
     id="namedview7"
     pagecolor="#ffffff"
     bordercolor="#666666"
     borderopacity="1.0"
     inkscape:pageshadow="2"
     inkscape:pageopacity="0.0"
     inkscape:pagecheckerboard="0"
     inkscape:document-units="mm"
     showgrid="false"
     units="mm"
     fit-margin-top="0"
     fit-margin-left="0"
     fit-margin-right="0"
     fit-margin-bottom="0"
     inkscape:zoom="4.192802"
     inkscape:cx="91.943288"
     inkscape:cy="51.159106"
     inkscape:window-width="1920"
     inkscape:window-height="1017"
     inkscape:window-x="1912"
     inkscape:window-y="-8"
     inkscape:window-maximized="1"
     inkscape:current-layer="layer1"
     scale-x="5.2" />
  <defs
     id="defs2" />
  <g
     inkscape:label="Layer 1"
     inkscape:groupmode="layer"
     id="layer1"
     transform="translate(-1.2491928,-1.5271853)">
    <path
       style="fill:#000000;stroke-width:0.299237"
       d="m 1.2491928,11.108796 c 0,-5.7286879 0.02013,-5.9314735 0.588758,-5.9314735 0.392505,0 0.588758,0.2027856 0.588758,0.6083555 0,0.7403133 -0.0806,0.7403133 1.3247037,0 1.3139461,-0.6921868 1.8849454,-0.7473308 2.8812831,-0.2782577 1.1159,0.5253633 1.7404616,1.9274057 1.7404616,3.9070602 0,2.2098735 -0.6531947,3.5778215 -1.9824336,4.1517015 -1.2668483,0.546943 -1.8403732,0.541823 -2.8937444,-0.02584 -0.4637554,-0.249916 -0.8942844,-0.454393 -0.9567304,-0.454393 -0.06245,0 -0.11354,0.889722 -0.11354,1.977158 0,1.774372 -0.06038,1.977157 -0.588758,1.977157 -0.568629,0 -0.588758,-0.202785 -0.588758,-5.931472 z m 5.0010001,1.128663 C 7.36397,11.305557 7.4442116,7.9718802 6.3793516,6.8715726 5.7294379,6.2000243 4.1214896,6.2774084 3.2023548,7.0244679 c -0.703481,0.5717793 -0.775646,0.8248769 -0.775646,2.7203547 0,1.8148444 0.08612,2.1522464 0.654258,2.5634364 0.874402,0.632843 2.3681418,0.599473 3.1692261,-0.0708 z M 55.120488,11.108796 c 0,-5.0696364 0.06417,-5.9314735 0.441568,-5.9314735 0.245316,0 0.441568,0.2703804 0.441568,0.6083555 0,0.3345963 0.06671,0.6083566 0.148256,0.6083566 0.08154,0 0.642578,-0.2737603 1.246752,-0.6083566 1.307468,-0.7240884 1.889614,-0.7564522 2.993828,-0.1664336 1.051827,0.562028 1.649925,2.024151 1.631393,3.9881544 -0.02002,2.1212462 -0.840098,3.5039382 -2.415841,4.0731992 -1.101203,0.397825 -1.330389,0.390638 -2.267514,-0.07113 l -1.042494,-0.513681 v 1.972236 c 0,1.769452 -0.06054,1.972238 -0.588758,1.972238 -0.568627,0 -0.588758,-0.202786 -0.588758,-5.931473 z m 4.983072,0.871512 c 0.85447,-1.122441 0.867266,-4.1038579 0.02136,-4.9779169 -0.710683,-0.7343409 -2.253718,-0.7999216 -3.172662,-0.1348412 -0.582135,0.4213144 -0.65426,0.7382095 -0.65426,2.8745772 0,2.7073029 0.213958,3.0141709 2.11288,3.0303959 0.82516,0.007 1.227621,-0.181309 1.692677,-0.792215 z M 45.148971,15.690372 C 40.56231,14.147278 39.451928,7.2306322 43.268948,3.9795843 c 2.835939,-2.4154354 7.352758,-1.6475938 8.914419,1.515414 1.1289,2.2864919 0.51256,5.6197057 -1.209258,6.5397317 -1.1149,0.595727 -1.629683,0.558089 -2.335017,-0.170725 l -0.593823,-0.613592 -0.879415,0.671824 C 45.405381,13.267135 43.593589,11.56792 44.220995,9.1603538 44.753314,7.1176619 46.897509,5.7787374 48.906328,6.2346357 L 49.75726,6.4277526 49.331144,8.113847 c -0.5936,2.348815 -0.448928,3.274758 0.529969,3.39197 1.784268,0.213645 2.764902,-3.5487224 1.506048,-5.7781998 -1.144824,-2.0275231 -4.608595,-2.7246487 -6.906683,-1.3900539 -3.554183,2.0640579 -3.533338,7.9265567 0.03508,9.8676967 1.504122,0.818208 4.179249,0.939108 5.991816,0.270796 0.67634,-0.249375 1.174724,-0.295493 1.280588,-0.118494 0.208833,0.349149 0.208899,0.349083 -0.98218,0.974915 -1.348148,0.70836 -4.07962,0.881791 -5.636815,0.357902 z m 2.273487,-4.754733 c 0.312126,-0.346181 0.64206,-1.014614 0.733184,-1.4854034 0.09112,-0.4707895 0.25268,-1.214151 0.359014,-1.6519134 0.176892,-0.7282604 0.116926,-0.7959311 -0.705305,-0.7959311 -1.698969,0 -3.248386,2.2552967 -2.666347,3.8810779 0.314572,0.878676 1.509591,0.906027 2.279454,0.05217 z M 10.374932,9.5656021 c 0,-4.057469 0.04363,-4.4243384 0.515163,-4.3319387 0.313073,0.061345 0.552168,0.4330511 0.609496,0.9475341 l 0.09434,0.8465836 1.019829,-0.9252287 c 1.294058,-1.1740198 2.471237,-1.2525156 2.471237,-0.164785 0,0.6682442 -0.126626,0.7604448 -1.044381,0.7604448 -0.751244,0 -1.247002,0.2259096 -1.766272,0.8048628 -0.659303,0.7350813 -0.72189,1.0515454 -0.72189,3.650138 0,2.642488 -0.04196,2.845274 -0.588759,2.845274 -0.561823,0 -0.588756,-0.202786 -0.588756,-4.4328849 z m 6.66322,3.8024509 c -1.774217,-1.442056 -0.577068,-3.4202982 2.418127,-3.9958555 1.759635,-0.3381315 1.810664,-0.3747133 1.810664,-1.2980364 0,-0.5225548 -0.158965,-1.1143553 -0.353255,-1.3151128 -0.482739,-0.4988088 -2.318851,-0.443036 -3.001873,0.091178 -0.607436,0.4750995 -1.060552,0.3516123 -1.060552,-0.2890323 0,-0.4724772 2.036533,-1.3838767 3.092289,-1.3838767 0.39894,0 1.148706,0.3908647 1.666148,0.8685901 0.937824,0.8658388 0.941218,0.8798071 1.072013,4.4105836 0.118508,3.199135 0.08221,3.541991 -0.374961,3.541991 -0.278394,0 -0.575455,-0.273761 -0.660135,-0.608356 -0.08468,-0.334596 -0.176738,-0.608357 -0.204575,-0.608357 -0.02784,0 -0.570277,0.273761 -1.205425,0.608357 -1.467077,0.772858 -2.22688,0.767612 -3.198465,-0.02207 z m 3.574532,-1.059794 c 0.424104,-0.30694 0.654259,-0.788459 0.654259,-1.368801 0,-0.794084 -0.100903,-0.895286 -0.892591,-0.895286 -2.132485,0 -3.585031,1.335215 -2.581077,2.372588 0.496874,0.513415 2.04228,0.453941 2.819409,-0.108509 z m 4.823484,1.241475 c -1.022687,-0.475448 -1.145476,-1.310389 -0.163429,-1.111282 1.59953,0.324301 3.148748,0.171782 3.464498,-0.341078 0.500965,-0.813688 -0.08866,-1.500073 -1.903293,-2.2156196 -1.990188,-0.7847726 -2.612545,-1.7287917 -2.004129,-3.0399498 0.226182,-0.4874284 0.742415,-1.0667011 1.147186,-1.287274 0.888856,-0.4843634 2.853575,-0.2966084 3.460689,0.3307161 0.594755,0.6145521 0.213328,1.2167834 -0.515415,0.8137887 -0.825912,-0.4567293 -2.253699,-0.3677878 -2.777057,0.1729935 -0.836565,0.8644135 -0.461468,1.3566876 1.608856,2.1114572 1.680261,0.6125649 2.344229,1.2661529 2.344229,2.3075799 0,2.033483 -2.520214,3.254453 -4.662135,2.258668 z m 6.722785,-5.786898 c 0,-6.0328652 0.01914,-6.2356507 0.588758,-6.2356507 0.540199,0 0.588757,0.2027855 0.588757,2.4587727 0,1.3523247 0.09936,2.4059279 0.220784,2.3413406 2.537038,-1.3494241 3.764673,-1.3548125 4.780064,-0.020982 0.514625,0.6760124 0.592346,1.2317173 0.592346,4.2351384 0,3.254241 -0.03453,3.457027 -0.588757,3.457027 -0.550568,0 -0.588757,-0.202786 -0.588757,-3.126188 0,-3.6792767 -0.337285,-4.4782648 -1.890456,-4.4782648 -0.539555,0 -1.319873,0.2811755 -1.749577,0.6304333 -0.749345,0.6090567 -0.775647,0.7379864 -0.775647,3.8022275 0,2.969006 -0.03764,3.171792 -0.588757,3.171792 -0.569611,0 -0.588758,-0.202786 -0.588758,-6.2356514 z m 31.792895,1.825069 c 0,-4.2077969 0.02706,-4.4105825 0.588758,-4.4105825 0.457923,0 0.588757,0.2027856 0.588757,0.9125343 0,0.5018934 0.05604,0.9125343 0.124546,0.9125343 0.0685,0 0.521953,-0.4106409 1.007679,-0.9125343 0.492719,-0.5091211 1.196804,-0.9125343 1.592665,-0.9125343 0.895099,0 1.075974,0.1893542 0.888493,0.930147 -0.107523,0.4248611 -0.408518,0.592051 -1.071903,0.5954011 -1.071233,0.0054 -1.363977,0.1778566 -2.04338,1.2036911 -0.374767,0.5658622 -0.4981,1.4131738 -0.4981,3.4220053 0,2.467134 -0.04472,2.66992 -0.588757,2.66992 -0.561689,0 -0.588758,-0.202786 -0.588758,-4.410582 z m 7.157926,4.10428 c -0.353707,-0.147256 -0.795502,-0.561969 -0.981761,-0.921584 -0.83542,-1.612958 0.673818,-3.1492261 3.445325,-3.5070304 1.347509,-0.1739639 1.564899,-0.2933963 1.564899,-0.8597453 0,-1.7808703 -1.703333,-2.5309339 -3.530456,-1.5546387 -1.103885,0.5898437 -1.564016,-0.00621 -0.616677,-0.7988812 1.551779,-1.298383 4.08388,-0.949023 4.896963,0.6756468 0.62252,1.2438942 0.611012,7.2725348 -0.01389,7.2725348 -0.242862,0 -0.443596,-0.10266 -0.446074,-0.228133 -0.0023,-0.125475 -0.115688,-0.409328 -0.251574,-0.630785 -0.197772,-0.322318 -0.44648,-0.27703 -1.246601,0.226996 -1.066791,0.672014 -1.788083,0.755296 -2.82016,0.32562 z m 3.302873,-1.401662 c 0.49367,-0.334231 0.72559,-0.771741 0.72559,-1.3688 0,-0.792686 -0.09538,-0.877551 -0.986397,-0.877551 -1.307746,0 -2.752182,0.540088 -2.963057,1.107914 -0.09336,0.251375 -0.03308,0.720891 0.133945,1.043367 0.382848,0.73917 2.062249,0.790841 3.089919,0.09507 z M 78.670781,7.762836 V 1.5271853 h 0.735947 c 0.723695,0 0.735947,0.040514 0.735947,2.434015 v 2.4340161 l 1.09956,-0.6089475 c 1.304348,-0.7223604 1.890924,-0.7569143 2.979047,-0.1754917 2.014357,1.0763387 2.311276,5.4629058 0.496694,7.3378938 -1.034023,1.068442 -2.658814,1.27898 -3.704626,0.480038 -1.04553,-0.798728 -1.165055,-0.802685 -1.165055,-0.03858 0,0.40557 -0.196252,0.608356 -0.588756,0.608356 -0.569611,0 -0.588758,-0.202786 -0.588758,-6.2356504 z m 5.277451,4.217472 C 84.802701,10.857867 84.815497,7.8764501 83.969592,7.0023911 83.258908,6.2680502 81.715873,6.2024695 80.796929,6.8675499 80.214795,7.2888643 80.14267,7.6057594 80.14267,9.7421271 c 0,2.7073029 0.213957,3.0141709 2.112879,3.0303959 0.82516,0.007 1.227621,-0.181309 1.692677,-0.792215 z m 4.142667,-4.217472 c 0,-6.0328652 0.01914,-6.2356507 0.588756,-6.2356507 0.539025,0 0.588758,0.2027855 0.588758,2.4006349 V 6.328454 l 1.092568,-0.5755652 c 1.5165,-0.7988938 2.344206,-0.72132 3.345757,0.3135692 0.85196,0.8803257 0.860494,0.9240285 0.860494,4.410582 0,3.318661 -0.03393,3.521447 -0.588761,3.521447 -0.552568,0 -0.588761,-0.202786 -0.588761,-3.298814 0,-2.8095363 -0.07989,-3.3734831 -0.538337,-3.8022276 -0.67777,-0.633796 -2.074591,-0.648054 -2.928701,-0.029891 -0.608318,0.440264 -0.654259,0.7072517 -0.654259,3.8022266 0,3.125924 -0.03587,3.328709 -0.588758,3.328709 -0.569611,0 -0.588756,-0.202785 -0.588756,-6.2356506 z m 10.392258,5.942049 c -1.174474,-0.514435 -1.560903,-1.831148 -1.560903,-5.3185872 0,-3.0061897 0.03716,-3.2089753 0.588758,-3.2089753 0.548206,0 0.589061,0.2042801 0.5931,2.9657359 0.0056,3.6224716 0.327953,4.4501606 1.784385,4.5774666 0.713253,0.06234 1.288283,-0.11156 1.833103,-0.554389 0.77153,-0.627092 0.79385,-0.734379 0.79385,-3.8170213 0,-2.9690066 0.0376,-3.1717922 0.58875,-3.1717922 0.56169,0 0.58876,0.2027856 0.58876,4.4105825 0,3.83289 -0.0614,4.410582 -0.46913,4.410582 -0.25801,0 -0.5384,-0.273761 -0.62309,-0.608356 -0.18513,-0.731528 -0.32726,-0.751652 -0.98233,-0.139088 -0.62903,0.588207 -2.282169,0.827507 -3.135253,0.453842 z m 7.632293,-0.06254 c -0.47374,-0.489518 -0.45845,-1.007413 0.0424,-1.436938 0.64938,-0.556869 1.40676,-0.06869 1.30435,0.840751 -0.0987,0.876063 -0.78279,1.178923 -1.34676,0.596187 z m 5.2402,-0.01659 c -2.8707,-1.565687 -2.73841,-6.7697664 0.20438,-8.0402706 1.21331,-0.5238286 2.8874,-0.3764619 3.55455,0.3128977 0.58494,0.6044122 0.1926,1.199219 -0.52812,0.8006597 -0.91427,-0.5055883 -2.48723,-0.3556878 -3.17059,0.3021533 -1.24477,1.1982772 -1.10469,4.7409189 0.21634,5.4714449 0.73394,0.405867 2.24898,0.394158 3.00372,-0.02322 0.96613,-0.534274 1.3514,0.166104 0.43329,0.787697 -1.01473,0.687011 -2.82009,0.875947 -3.71357,0.388635 z m 6.8547,0.06644 c -0.3537,-0.147255 -0.7955,-0.561969 -0.98176,-0.921584 -0.83541,-1.612959 0.67382,-3.1492253 3.44533,-3.50703 1.34751,-0.173965 1.5649,-0.2933975 1.5649,-0.8597463 0,-1.7808705 -1.70333,-2.5309339 -3.53046,-1.5546389 -1.10388,0.5898438 -1.56401,-0.00621 -0.61668,-0.7988811 1.55178,-1.2983831 4.08389,-0.949023 4.89696,0.6756466 0.62253,1.2438945 0.61101,7.2725337 -0.0139,7.2725337 -0.24286,0 -0.44359,-0.102658 -0.44608,-0.228133 -0.002,-0.125473 -0.11569,-0.409327 -0.25157,-0.630783 -0.19777,-0.322318 -0.44648,-0.27703 -1.2466,0.226996 -1.06679,0.672013 -1.78808,0.755295 -2.82016,0.32562 z m 3.30288,-1.401661 c 0.49366,-0.334232 0.72559,-0.771743 0.72559,-1.368802 0,-0.792686 -0.0954,-0.87755 -0.9864,-0.87755 -1.30774,0 -2.75218,0.540088 -2.96306,1.107913 -0.0934,0.251376 -0.0331,0.720892 0.13394,1.043367 0.38285,0.73917 2.06225,0.790842 3.08993,0.09507 z"
       id="path21" />
  </g>
  <metadata
     id="metadata1477">
    <rdf:RDF>
      <cc:Work
         rdf:about="">
        <dc:title>email</dc:title>
      </cc:Work>
    </rdf:RDF>
  </metadata>
</svg>
